<?xml version="1.0" encoding="UTF-8"?>
<svg width="26px" height="24px" viewBox="0 0 26 24" version="1.1" xmlns="http://www.w3.org/2000/svg" xmlns:xlink="http://www.w3.org/1999/xlink">
    <!-- Generator: Sketch 52.6 (67491) - http://www.bohemiancoding.com/sketch -->
    <title>Slice 1</title>
    <desc>Created with Sketch.</desc>
    <g id="Page-1" stroke="none" stroke-width="1" fill="none" fill-rule="evenodd">
        <g id="menu-icon" fill="#C0C0C0" fill-rule="nonzero">
            <path d="M3.89953903,12.2583302 C3.41654161,12.7363763 2.34558342,12.9003557 1.50900736,12.6243557 C0.672431292,12.3483557 0.38546891,11.7363763 0.868466327,11.2583302 L11.3684102,0.866025404 C11.8514076,0.387979381 12.9223658,0.224 13.7589418,0.5 C14.5955179,0.776 14.8824803,1.38797938 14.3994829,1.8660254 L3.89953903,12.2583302 Z M5.41502494,13.3659755 L14.3994829,22.2583302 C14.8824803,22.7363763 14.5955179,23.3483557 13.7589418,23.6243557 C12.9223658,23.9003557 11.8514076,23.7363763 11.3684102,23.2583302 L0.868466327,12.8660254 C0.38546891,12.3879794 0.672431292,11.776 1.50900736,11.5 C1.86279411,11.38328 2.2584985,11.3452473 2.63392467,11.3763788 L2.63392467,11.3659755 C2.63392467,10.8136907 3.08163992,10.3659755 3.63392467,10.3659755 L24.6339247,10.3659755 C25.1862094,10.3659755 25.6339247,10.8136907 25.6339247,11.3659755 L25.6339247,12.3659755 C25.6339247,12.9182602 25.1862094,13.3659755 24.6339247,13.3659755 L5.41502494,13.3659755 Z" id="Shape"></path>
        </g>
    </g>
</svg>