
<svg width="28px" height="28px" viewBox="0 0 28 28" version="1.1" xmlns="http://www.w3.org/2000/svg" xmlns:xlink="http://www.w3.org/1999/xlink">
    <g id="Page-1" stroke="none" stroke-width="1" fill="none" fill-rule="evenodd">
        <g id="close-icon" fill="#c0c0c0">
            <path d="M27.6828125,23.5325351 L18.1161458,13.9344092 L27.7046875,4.46017699 C28.0984375,4.06663196 28.0984375,3.42529932 27.7046875,3.03175429 L24.9776042,0.291514836 C24.7880208,0.102030193 24.5328125,0 24.2630208,0 C23.9932292,0 23.7380208,0.109318064 23.5484375,0.291514836 L14.0036458,9.73659552 L4.44427083,0.298802707 C4.2546875,0.109318064 3.99947917,0.0072878709 3.7296875,0.0072878709 C3.45989583,0.0072878709 3.2046875,0.116605934 3.01510417,0.298802707 L0.2953125,3.03904217 C-0.0984375,3.43258719 -0.0984375,4.07391983 0.2953125,4.46746486 L9.88385417,13.941697 L0.324479167,23.5325351 C0.134895833,23.7220198 0.0255208333,23.9770953 0.0255208333,24.2467465 C0.0255208333,24.5163977 0.127604167,24.7714732 0.324479167,24.9609578 L3.0515625,27.7011973 C3.2484375,27.8979698 3.50364583,28 3.76614583,28 C4.02135417,28 4.28385417,27.9052577 4.48072917,27.7011973 L14.0036458,18.1395107 L23.5338542,27.6939094 C23.7307292,27.8906819 23.9859375,27.9927121 24.2484375,27.9927121 C24.5036458,27.9927121 24.7661458,27.8979698 24.9630208,27.6939094 L27.6901042,24.95367 C27.8796875,24.7641853 27.9890625,24.5091098 27.9890625,24.2394586" id="Path"></path>
        </g>
    </g>
</svg>